<?xml version="1.0" standalone="no"?>
<!DOCTYPE svg PUBLIC "-//W3C//DTD SVG 1.1//EN" "http://www.w3.org/Graphics/SVG/1.1/DTD/svg11.dtd">
<svg width="360mm" height="300mm" viewBox="0 -300 360 300" xmlns="http://www.w3.org/2000/svg" version="1.1">
<title>OpenSCAD Model</title>
<path d="
M 0,-0 L 360,-0 L 360,-45 L 345,-45 L 345,-15 L 195,-15
 L 195,-45 L 180,-45 L 180,-15 L 15,-15 L 15,-45 L 0,-45
 z
M 68.1,-3 L 68.1,-13 L 83.1,-13 L 83.1,-3 z
M 111.9,-3 L 111.9,-13 L 126.9,-13 L 126.9,-3 z
M 0,-120 L 15,-120 L 15,-180 L 0,-180 z
M 0,-255 L 15,-255 L 15,-285 L 180,-285 L 180,-90 L 195,-90
 L 195,-120 L 225,-120 L 225,-135 L 195,-135 L 195,-285 L 345,-285
 L 345,-255 L 360,-255 L 360,-300 L 0,-300 z
M 248.1,-287 L 248.1,-297 L 263.1,-297 L 263.1,-287 z
M 276.9,-287 L 276.9,-297 L 291.9,-297 L 291.9,-287 z
M 270,-120 L 345,-120 L 345,-90 L 360,-90 L 360,-180 L 345,-180
 L 345,-135 L 270,-135 z
" stroke="black" fill="lightgray" stroke-width="0.5"/>
</svg>
